<svg width="1080" height="2280" viewBox="0 0 1080 2280" fill="none" xmlns="http://www.w3.org/2000/svg">
  <rect width="1080" height="2280" rx="72" fill="#0B1220"/>
  <rect x="46" y="46" width="988" height="2188" rx="52" fill="#111827"/>
  <rect x="90" y="110" width="900" height="120" rx="22" fill="#1F2937"/>
  <text x="130" y="186" fill="#F9FAFB" font-size="44" font-family="Arial">Roam</text>

  <rect x="100" y="300" width="880" height="280" rx="28" fill="#1F2937"/>
  <text x="140" y="392" fill="#F3F4F6" font-size="46" font-family="Arial">Campus Walk</text>
  <rect x="140" y="430" width="700" height="36" rx="18" fill="#374151"/>
  <rect x="140" y="430" width="420" height="36" rx="18" fill="#3B82F6"/>
  <text x="860" y="460" fill="#93C5FD" font-size="34" font-family="Arial" text-anchor="end">60.0%</text>

  <rect x="100" y="620" width="880" height="280" rx="28" fill="#1F2937"/>
  <text x="140" y="712" fill="#F3F4F6" font-size="46" font-family="Arial">Old Town</text>
  <rect x="140" y="750" width="700" height="36" rx="18" fill="#374151"/>
  <rect x="140" y="750" width="196" height="36" rx="18" fill="#60A5FA"/>
  <text x="860" y="780" fill="#93C5FD" font-size="34" font-family="Arial" text-anchor="end">28.0%</text>

  <rect x="100" y="940" width="880" height="280" rx="28" fill="#1F2937"/>
  <text x="140" y="1032" fill="#F3F4F6" font-size="46" font-family="Arial">Beach Route</text>
  <rect x="140" y="1070" width="700" height="36" rx="18" fill="#374151"/>
  <rect x="140" y="1070" width="84" height="36" rx="18" fill="#93C5FD"/>
  <text x="860" y="1100" fill="#93C5FD" font-size="34" font-family="Arial" text-anchor="end">12.0%</text>

  <circle cx="910" cy="1980" r="72" fill="#2563EB"/>
  <text x="910" y="2000" fill="#EFF6FF" font-size="72" font-family="Arial" text-anchor="middle">+</text>

  <circle cx="170" cy="1980" r="56" fill="#374151"/>
  <text x="170" y="2000" fill="#E5E7EB" font-size="42" font-family="Arial" text-anchor="middle">⇪</text>
</svg>
