<svg width="1080" height="2280" viewBox="0 0 1080 2280" fill="none" xmlns="http://www.w3.org/2000/svg">
  <rect width="1080" height="2280" rx="72" fill="#0B1220"/>
  <rect x="46" y="46" width="988" height="2188" rx="52" fill="#111827"/>
  <rect x="90" y="110" width="900" height="120" rx="22" fill="#1F2937"/>
  <text x="130" y="186" fill="#F9FAFB" font-size="44" font-family="Arial">Add Area</text>
  <rect x="90" y="270" width="900" height="1180" rx="28" fill="#0F172A"/>
  <path d="M170 520 L350 420 L620 540 L760 780 L560 980 L280 860 Z" fill="#2563EB55" stroke="#3B82F6" stroke-width="12"/>
  <circle cx="170" cy="520" r="16" fill="#60A5FA"/>
  <circle cx="350" cy="420" r="16" fill="#60A5FA"/>
  <circle cx="620" cy="540" r="16" fill="#60A5FA"/>
  <circle cx="760" cy="780" r="16" fill="#60A5FA"/>
  <circle cx="560" cy="980" r="16" fill="#60A5FA"/>
  <circle cx="280" cy="860" r="16" fill="#60A5FA"/>
  <rect x="120" y="1520" width="840" height="92" rx="18" fill="#1F2937"/>
  <text x="150" y="1578" fill="#9CA3AF" font-size="34" font-family="Arial">Area Name</text>
  <rect x="120" y="1650" width="260" height="96" rx="18" fill="#374151"/>
  <text x="188" y="1710" fill="#E5E7EB" font-size="34" font-family="Arial">Undo</text>
  <rect x="410" y="1650" width="260" height="96" rx="18" fill="#1D4ED8"/>
  <text x="458" y="1710" fill="#EFF6FF" font-size="34" font-family="Arial">Close</text>
  <rect x="700" y="1650" width="260" height="96" rx="18" fill="#374151"/>
  <text x="732" y="1710" fill="#E5E7EB" font-size="34" font-family="Arial">Clear</text>
  <rect x="120" y="1788" width="840" height="110" rx="22" fill="#10B981"/>
  <text x="490" y="1858" fill="#ECFDF5" font-size="40" font-family="Arial" text-anchor="middle">Save</text>
</svg>
