<svg width="1080" height="2280" viewBox="0 0 1080 2280" fill="none" xmlns="http://www.w3.org/2000/svg">
  <rect width="1080" height="2280" rx="72" fill="#0B1220"/>
  <rect x="46" y="46" width="988" height="2188" rx="52" fill="#111827"/>
  <rect x="90" y="110" width="900" height="120" rx="22" fill="#1F2937"/>
  <text x="130" y="186" fill="#F9FAFB" font-size="44" font-family="Arial">Downtown Loop</text>
  <rect x="820" y="136" width="140" height="66" rx="33" fill="#1E3A8A"/>
  <text x="890" y="180" fill="#DBEAFE" font-size="30" font-family="Arial" text-anchor="middle">37.5%</text>
  <rect x="90" y="270" width="900" height="1450" rx="28" fill="#0F172A"/>
  <rect x="130" y="320" width="820" height="1350" rx="16" fill="#111827"/>
  <g opacity="0.85">
    <rect x="130" y="320" width="820" height="1350" fill="#000000"/>
    <rect x="240" y="420" width="120" height="120" fill="#00000000"/>
    <rect x="360" y="420" width="120" height="120" fill="#00000000"/>
    <rect x="360" y="540" width="120" height="120" fill="#00000000"/>
    <rect x="480" y="540" width="120" height="120" fill="#00000000"/>
    <rect x="600" y="660" width="120" height="120" fill="#00000000"/>
    <rect x="600" y="780" width="120" height="120" fill="#00000000"/>
    <rect x="480" y="780" width="120" height="120" fill="#00000000"/>
    <rect x="360" y="900" width="120" height="120" fill="#00000000"/>
  </g>
  <path d="M200 430 L870 430 L870 1600 L200 1600 Z" stroke="#3B82F6" stroke-width="8"/>
  <circle cx="600" cy="840" r="24" fill="#22D3EE" stroke="#FFFFFF" stroke-width="6"/>
  <rect x="140" y="1758" width="800" height="118" rx="22" fill="#EF4444"/>
  <text x="540" y="1834" fill="#FEF2F2" font-size="42" font-family="Arial" text-anchor="middle">Stop</text>
</svg>
